<?xml version="1.0" encoding="UTF-8" standalone="no"?>
<svg
   viewBox="0 0 1549.6062 1511.811"
   width="410mm"
   height="400mm"
   version="1.1"
   id="svg966"
   sodipodi:docname="GreenBay_Helmet_Corte.svg"
   inkscape:version="1.3.2 (091e20e, 2023-11-25, custom)"
   xmlns:inkscape="http://www.inkscape.org/namespaces/inkscape"
   xmlns:sodipodi="http://sodipodi.sourceforge.net/DTD/sodipodi-0.dtd"
   xmlns="http://www.w3.org/2000/svg"
   xmlns:svg="http://www.w3.org/2000/svg">
  <sodipodi:namedview
     id="namedview966"
     pagecolor="#ffffff"
     bordercolor="#000000"
     borderopacity="0.25"
     inkscape:showpageshadow="2"
     inkscape:pageopacity="0.0"
     inkscape:pagecheckerboard="0"
     inkscape:deskcolor="#d1d1d1"
     inkscape:document-units="mm"
     inkscape:zoom="0.26888281"
     inkscape:cx="743.81846"
     inkscape:cy="65.084115"
     inkscape:window-width="1920"
     inkscape:window-height="1009"
     inkscape:window-x="-8"
     inkscape:window-y="-8"
     inkscape:window-maximized="1"
     inkscape:current-layer="g966" />
  <desc
     id="desc1">tombola-1.dxf - scale = 1.000000, origin = (200.000000, 200.000000), method = manual</desc>
  <defs
     id="defs4">
    <marker
       id="DistanceX"
       orient="auto"
       refX="0"
       refY="0"
       style="overflow:visible">
      <path
         d="M 3,-3 -3,3 M 0,-5 V 5"
         style="stroke:#000000;stroke-width:0.5"
         id="path1" />
    </marker>
    <pattern
       id="Hatch"
       patternUnits="userSpaceOnUse"
       width="8"
       height="8"
       x="0"
       y="0">
      <path
         d="M8 4 l-4,4"
         stroke="#000000"
         stroke-width="0.25"
         linecap="square"
         id="path2" />
      <path
         d="M6 2 l-4,4"
         stroke="#000000"
         stroke-width="0.25"
         linecap="square"
         id="path3" />
      <path
         d="M4 0 l-4,4"
         stroke="#000000"
         stroke-width="0.25"
         linecap="square"
         id="path4" />
    </pattern>
    <symbol
       id="*Model_Space" />
    <symbol
       id="*Paper_Space" />
  </defs>
  <g
     inkscape:groupmode="layer"
     inkscape:label="0"
     id="g4" />
  <g
     inkscape:groupmode="layer"
     inkscape:label="hole"
     id="g444" />
  <g
     inkscape:groupmode="layer"
     inkscape:label="boundary"
     id="g964" />
  <g
     inkscape:groupmode="layer"
     inkscape:label="annotation"
     id="g965" />
  <g
     inkscape:groupmode="layer"
     inkscape:label="frame"
     id="g966">
    <path
       id="path9-9"
       style="fill:#010101;fill-opacity:1;stroke:none;stroke-width:1"
       d="m 619.77731,197.91015 v 0.004 c -104.95918,3.53841 -211.89587,31.71162 -299.68162,79.6289 -148.42311,81.01412 -263.824577,208.43617 -308.7578,389.83397 -37.761663,152.44598 24.762742,431.67028 99.71484,581.46288 95.44862,-0.5629 326.7611,117.9368 352.35154,123.5332 29.30762,6.409 261.98465,4.754 388.33006,18.9941 19.23867,2.1685 52.68376,-23.5544 58.48242,-44.5332 14.13527,41.9406 120.13215,78.2335 392.99805,143.2754 75.7666,18.0603 128.2189,46.8725 149.4511,-21.6289 40.1629,-129.5722 53.2533,-213.5196 58.3965,-309.834 3.0117,-56.4001 -0.9906,-56.6372 -51.6679,-58.0605 -65.8998,-1.8509 -166.1757,-8.1317 -247.5567,-13.8086 0.3118,-5.8089 -27.8128,-180.49801 -44.082,-275.30273 105.3192,-9.21299 121.0161,-7.85594 187.9043,-16.61914 53.0778,-6.95416 71.7705,-9.90784 64.9082,-57.02734 -4.9196,-49.87375 -40.9459,-47.24736 -76.6484,-48.00781 -21.1378,-176.01487 -190.6734,-318.34575 -331.461,-400.89256 -60.20377,-31.81261 -107.29116,-49.51497 -184.11519,-69.23437 -12.86952,-3.30308 -25.48329,-6.17741 -38.18555,-8.66211 -38.10676,-7.45397 -76.96402,-11.42818 -125.58007,-13.11133 -14.85195,-0.51419 -29.80665,-0.50907 -44.80078,-0.01 z m 67.7168,457.57614 c -8.34955,5.1e-4 -15.11776,6.7696 -15.11719,15.11914 5.1e-4,8.34878 6.76841,15.11668 15.11719,15.11719 8.34955,5.7e-4 15.11863,-6.76765 15.11914,-15.11719 5.7e-4,-8.35031 -6.76883,-15.11971 -15.11914,-15.11914 z M 1131.7871,811.3984 c 3.0262,18.13528 7.2737,91.56687 11.3378,115.94921 19.1995,115.18809 25.2349,157.19839 28.8868,163.48439 -93.0873,-11.639 -142.4486,-18.6613 -205.55277,-21.4531 l -73.15429,-67.5938 76.3125,-78.11913 25.82617,-25.20898 c 45.01299,-50.88014 92.12069,-89.58504 136.34379,-87.05859 z m -171.80277,298.6426 213.15237,27.6445 c 2.5029,10.8803 6.7838,33.8087 10.8789,45.4375 l -231.80862,-16.8301 c 1.58253,-8.6457 7.77735,-56.2519 7.77735,-56.2519 z m 255.58197,18.5371 c 66.2541,4.1384 151.5589,5.9337 257.8145,13.0468 2.6501,23.2254 1.9999,50.1336 0.9629,63.8907 -39.7313,-10.6946 -212.2268,-15.2992 -243.5215,-19.1797 z m -271.69135,69.1836 c 1.80189,41.4623 39.75373,119.6749 82.10935,178.2421 -44.69882,-18.9195 -63.79385,-32.2053 -103.60935,-66.3906 6.5329,-27.9967 15.62972,-89.5752 21.5,-111.8515 z m 33.21289,2.5488 c 95.60426,14.7405 122.64106,13.6088 214.04296,23.6035 l 26.3398,141.9746 c 5.8993,16.8072 29.3998,61.5779 36.6407,73.7617 4.5084,7.5855 -74.8976,-12.2252 -169.4239,-39.707 -42.6447,-56.7916 -101.17308,-164.3228 -107.59956,-199.6328 z m 260.84566,28.5898 c 55.9189,4.0822 120.3562,2.2771 233.7188,14.6797 -1.6892,17.3495 -29.7053,131.8731 -33.2149,164.6406 -13.1889,43.8332 -20.4358,58.5572 -30.9101,65.2344 -8.8177,5.6208 -33.9822,2.0193 -78.9141,-10.207 -38.853,-31.3246 -50.813,-49.9159 -69.664,-105.8203 z"
       sodipodi:nodetypes="cccsccscscssccscccssscccssscccccccccccccccccccccccccccccccccccc" />
    <path
       id="path5"
       style="fill:#ffffff;fill-opacity:1;stroke:#000000;stroke-width:3.77953;stroke-dasharray:none;stroke-opacity:1"
       d="m 688.29684,659.83395 c -4.34192,-0.0395 -11.43528,1.31948 -11.69922,10.56641 -0.19284,6.7556 3.63799,11.04478 10.47656,11.6289 6.83859,0.58413 12.0422,-4.69011 12,-11.71094 -0.0409,-6.80142 -4.17318,-10.42412 -10.77734,-10.48437 z"
       sodipodi:nodetypes="sssss" />
  </g>
</svg>
