<?xml version="1.0" encoding="UTF-8" standalone="no"?>
<svg
   viewBox="0 0 1549.6062 1511.811"
   width="410mm"
   height="400mm"
   version="1.1"
   id="svg966"
   sodipodi:docname="GreenBay_Helmet.svg"
   inkscape:version="1.3.2 (091e20e, 2023-11-25, custom)"
   xmlns:inkscape="http://www.inkscape.org/namespaces/inkscape"
   xmlns:sodipodi="http://sodipodi.sourceforge.net/DTD/sodipodi-0.dtd"
   xmlns="http://www.w3.org/2000/svg"
   xmlns:svg="http://www.w3.org/2000/svg">
  <sodipodi:namedview
     id="namedview966"
     pagecolor="#ffffff"
     bordercolor="#000000"
     borderopacity="0.25"
     inkscape:showpageshadow="2"
     inkscape:pageopacity="0.0"
     inkscape:pagecheckerboard="0"
     inkscape:deskcolor="#d1d1d1"
     inkscape:document-units="mm"
     inkscape:zoom="0.38025772"
     inkscape:cx="857.3133"
     inkscape:cy="661.39354"
     inkscape:window-width="1920"
     inkscape:window-height="1009"
     inkscape:window-x="-8"
     inkscape:window-y="-8"
     inkscape:window-maximized="1"
     inkscape:current-layer="g966" />
  <desc
     id="desc1">tombola-1.dxf - scale = 1.000000, origin = (200.000000, 200.000000), method = manual</desc>
  <defs
     id="defs4">
    <marker
       id="DistanceX"
       orient="auto"
       refX="0"
       refY="0"
       style="overflow:visible">
      <path
         d="M 3,-3 -3,3 M 0,-5 V 5"
         style="stroke:#000000;stroke-width:0.5"
         id="path1" />
    </marker>
    <pattern
       id="Hatch"
       patternUnits="userSpaceOnUse"
       width="8"
       height="8"
       x="0"
       y="0">
      <path
         d="M8 4 l-4,4"
         stroke="#000000"
         stroke-width="0.25"
         linecap="square"
         id="path2" />
      <path
         d="M6 2 l-4,4"
         stroke="#000000"
         stroke-width="0.25"
         linecap="square"
         id="path3" />
      <path
         d="M4 0 l-4,4"
         stroke="#000000"
         stroke-width="0.25"
         linecap="square"
         id="path4" />
    </pattern>
    <symbol
       id="*Model_Space" />
    <symbol
       id="*Paper_Space" />
  </defs>
  <g
     inkscape:groupmode="layer"
     inkscape:label="0"
     id="g4" />
  <g
     inkscape:groupmode="layer"
     inkscape:label="hole"
     id="g444" />
  <g
     inkscape:groupmode="layer"
     inkscape:label="boundary"
     id="g964" />
  <g
     inkscape:groupmode="layer"
     inkscape:label="annotation"
     id="g965" />
  <g
     inkscape:groupmode="layer"
     inkscape:label="frame"
     id="g966">
    <path
       id="path9-9"
       style="fill:#010101;fill-opacity:1;stroke:none;stroke-width:1"
       d="M 619.77731 197.91015 L 619.77731 197.91405 C 514.81813 201.45246 407.88144 229.62567 320.09569 277.54295 C 171.67258 358.55707 56.271113 485.97912 11.33789 667.37692 C -26.423773 819.8229 36.100632 1099.0472 111.05273 1248.8398 C 206.50135 1248.2769 437.81383 1366.7766 463.40427 1372.373 C 492.71189 1378.782 725.38892 1377.127 851.73433 1391.3671 C 870.973 1393.5356 904.41809 1367.8127 910.21675 1346.8339 C 924.35202 1388.7745 1030.3489 1425.0674 1303.2148 1490.1093 C 1378.9814 1508.1696 1431.4337 1536.9818 1452.6659 1468.4804 C 1492.8288 1338.9082 1505.9192 1254.9608 1511.0624 1158.6464 C 1514.0741 1102.2463 1510.0718 1102.0092 1459.3945 1100.5859 C 1393.4947 1098.735 1293.2188 1092.4542 1211.8378 1086.7773 C 1212.1496 1080.9684 1184.025 906.27929 1167.7558 811.47457 C 1273.075 802.26158 1288.7719 803.61863 1355.6601 794.85543 C 1408.7379 787.90127 1427.4306 784.94759 1420.5683 737.82809 C 1415.6487 687.95434 1379.6224 690.58073 1343.9199 689.82028 C 1322.7821 513.80541 1153.2465 371.47453 1012.4589 288.92772 C 952.25513 257.11511 905.16774 239.41275 828.34371 219.69335 C 815.47419 216.39027 802.86042 213.51594 790.15816 211.03124 C 752.0514 203.57727 713.19414 199.60306 664.57809 197.91991 C 649.72614 197.40572 634.77144 197.41084 619.77731 197.91015 z M 623.96872 223.67577 C 649.73911 223.66507 674.63046 227.60301 738.33004 239.61327 C 797.67892 250.8034 815.73593 255.17841 848.29878 266.24999 C 1011.7446 321.82257 1133.6222 414.69587 1205.5546 541.70505 C 1232.3032 588.93304 1245.8602 648.97849 1260.1074 699.98825 L 1118.4003 708.63864 C 1074.1217 713.07967 1052.1447 708.9757 1014.7617 726.19528 L 928.52534 806.36519 L 897.97066 836.248 L 803.08785 948.55464 C 793.00819 960.48537 793.97844 979.65901 843.71871 1021.9589 L 927.00972 1092.791 C 930.27537 1097.2975 920.42492 1161.6095 919.14839 1160.9882 L 910.96284 1200.5292 L 910.80659 1200.4609 C 909.26718 1200.0732 887.28922 1310.5748 884.38277 1322.2324 C 880.18856 1339.0529 870.25112 1359.3414 842.10347 1356.9218 C 713.91202 1345.9029 499.00955 1347.4041 472.02146 1339.7929 C 443.10088 1331.638 218.37148 1211.6154 130.77148 1221.455 C 35.192213 961.41707 21.250475 848.27833 41.253904 672.96481 C 78.039041 557.74814 132.1109 465.37247 211.61718 388.52537 C 242.31298 358.85506 307.98875 312.23341 345.6035 293.416 C 422.85741 254.76468 509.97483 230.94933 596.43356 224.84179 C 606.68931 224.11738 615.37851 223.6777 623.96872 223.67577 z M 940.3105 284.78319 C 949.38995 282.93682 1033.3304 328.4785 1074.496 357.58397 C 1159.7003 417.82593 1222.7898 508.16006 1264.7187 597.64645 C 1278.0576 626.11314 1297.7835 675.65923 1302.4999 694.46871 C 1295.1022 695.69945 1294.9207 696.0148 1283.4335 697.36715 C 1274.8509 659.14601 1244.4507 585.86817 1220.7949 536.12888 C 1172.7549 440.39888 1088.913 367.35723 985.6855 309.52733 C 964.2865 297.53896 944.55808 287.22683 941.84956 286.60545 C 939.14123 285.98395 938.44915 285.16174 940.3105 284.78319 z M 626.56637 327.21092 C 620.12458 327.03323 613.68436 327.13502 607.31833 328.08201 C 564.56151 334.43947 523.69512 339.83214 484.65818 360.47068 C 463.76724 371.51543 443.9924 384.62699 427.02927 401.20115 C 371.56281 455.39297 379.13148 536.84336 441.1406 582.82419 C 502.88951 628.61142 588.85225 643.71163 664.22653 633.2695 C 722.23037 625.23329 779.20086 604.43493 822.5605 563.95896 C 845.9093 542.16421 864.62522 513.19821 866.14644 480.52537 C 867.84891 443.95808 844.19669 409.09102 817.34371 386.74412 C 784.89717 359.74338 744.60445 342.87409 702.92184 334.44334 C 683.97469 330.61104 664.74042 328.52122 645.82223 328.01561 C 639.45148 327.84532 633.00827 327.38862 626.56637 327.21092 z M 624.58786 350.24412 C 630.6762 350.08381 636.77027 350.09983 642.84958 350.29686 C 659.06116 350.81889 675.18523 352.61606 690.92575 355.74608 C 711.91336 359.91959 732.21879 366.45963 751.14254 375.49803 C 778.3127 388.4738 810.59837 407.53539 823.68746 436.1406 L 762.09762 437.19138 C 753.05984 437.34547 741.26828 439.57629 732.49996 437.34568 C 726.26592 435.75953 720.54138 425.92499 715.62887 421.79685 C 705.25369 413.07906 692.72639 406.447 680.08004 401.67771 C 637.24351 385.52236 586.22867 389.58304 546.02341 410.90232 C 524.04581 422.55612 502.27549 444.15749 499.9199 470.26365 C 496.33834 509.95611 526.944 539.46693 561.62888 551.93161 C 617.30167 571.93847 697.01306 560.36115 731.40231 508.12107 L 589.52731 510.54099 L 587.82809 475.36716 L 614.20505 473.81638 L 665.8945 472.93357 L 835.26363 470.04685 C 847.19727 528.73377 782.50748 574.35559 735.01949 591.30466 C 662.90345 617.04608 580.10091 619.14639 508.37888 590.49997 C 468.93921 574.74766 431.94989 548.75313 418.22654 506.85935 C 399.17284 448.70131 456.21965 400.43974 502.56638 378.57225 C 539.5121 361.14204 581.96926 351.36629 624.58786 350.24412 z M 871.123 390.00779 L 871.123 390.00975 C 869.67076 389.99905 868.57429 390.4894 868.07417 391.36326 C 867.03322 393.18225 868.80946 396.14801 872.04292 397.98826 C 875.27713 399.82861 878.7443 399.84621 879.78706 398.02732 C 880.82905 396.20791 879.04964 393.24073 875.81441 391.40037 C 874.26159 390.51696 872.57488 390.0154 871.123 390.00779 z M 892.64449 403.86326 C 891.12279 403.95446 889.96267 404.52013 889.3437 405.47459 C 887.78925 407.86926 889.97362 412.04017 894.22261 414.78904 C 898.47158 417.5376 903.17539 417.82323 904.72847 415.42771 C 906.28198 413.03251 904.09685 408.86356 899.84761 406.11521 C 897.45606 404.56836 894.79392 403.73546 892.64449 403.86326 z M 924.12495 426.39842 C 922.33193 426.39886 920.93002 426.98182 920.13667 428.06052 C 918.14666 430.76722 920.42132 435.82078 925.21675 439.34568 C 930.01185 442.87023 935.51173 443.53231 937.5019 440.82615 C 939.49182 438.11942 937.21736 433.06783 932.42183 429.54295 C 929.7227 427.55913 926.65664 426.39778 924.12495 426.39842 z M 886.81636 441.03123 C 885.13644 441.00013 883.85881 441.54575 883.26558 442.54881 C 882.02999 444.6367 884.03654 448.09957 887.748 450.28123 C 891.46078 452.46354 895.47228 452.53892 896.70699 450.4492 C 897.9418 448.36044 895.93433 444.89801 892.22261 442.71677 C 890.44021 441.6694 888.4961 441.06277 886.81636 441.03123 z M 914.18159 453.83982 C 912.5741 453.77112 911.29398 454.23955 910.54097 455.17576 C 908.65155 457.52407 910.49551 462.14082 914.6562 465.4863 C 918.8185 468.83222 923.72551 469.63963 925.61519 467.29099 C 927.50512 464.94226 925.66087 460.32602 921.498 456.98045 C 919.15531 455.09761 916.45152 453.93758 914.18159 453.83982 z M 961.96089 455.44138 C 960.2456 455.49178 958.84865 456.05318 957.91011 457.07224 C 954.958 460.27576 957.16455 467.11206 962.83784 472.34177 C 968.5107 477.57104 975.50233 479.21424 978.45503 476.01169 C 981.40834 472.80895 979.20247 465.97251 973.52925 460.74216 C 969.85978 457.35892 965.45014 455.33923 961.96089 455.44138 z M 312.88866 478.71482 C 311.59167 478.44336 310.75917 478.48447 310.55077 478.92771 C 283.14474 498.9644 264.98591 513.45838 229.83202 551.72263 C 201.95829 588.45751 188.36288 621.07342 179.13476 653.06833 C 189.61544 658.47936 193.76684 659.96145 199.96483 662.88083 C 214.97281 670.29594 606.21159 872.62682 653.27926 894.25191 C 656.0568 895.52818 738.88725 1048.691 739.01559 1048.5585 C 739.12665 1048.4438 661.8857 894.13321 657.55465 891.67769 C 601.71467 860.01917 198.87288 649.25085 197.95897 647.1152 C 216.88574 608.90921 220.39719 602.93596 246.86913 564.8906 C 276.64149 530.46453 279.50476 519.64509 310.63084 497.44529 C 314.93175 494.37773 321.27307 489.04205 326.92381 488.50779 C 334.59413 487.78255 352.55095 499.95456 353.12889 498.93357 C 353.77635 497.7897 321.96757 480.61507 312.88866 478.71482 z M 949.85347 482.31833 C 948.20763 482.38053 946.87137 482.9327 945.97847 483.91794 C 943.16972 487.01695 945.34171 493.56146 950.83003 498.53708 C 956.31833 503.51248 963.04555 505.03508 965.85542 501.93747 C 968.66416 498.83848 966.49225 492.29169 961.00386 487.31638 C 957.45384 484.09764 953.20275 482.19299 949.85347 482.31833 z M 904.19136 485.47458 C 902.89491 485.45638 901.87542 485.86367 901.29097 486.63474 C 899.82474 488.56824 901.4163 492.23928 904.84566 494.83396 C 908.27536 497.42811 912.24423 497.96438 913.71089 496.03122 C 915.17703 494.09774 913.58549 490.42668 910.1562 487.83201 C 908.22602 486.37184 906.02141 485.50077 904.19136 485.47458 z M 995.53706 486.3906 C 993.82119 486.3906 992.40827 486.91649 991.44136 487.90818 C 988.40054 491.02801 990.41552 497.92283 995.94136 503.30857 C 1001.4669 508.69493 1008.4127 510.53212 1011.4531 507.41208 C 1014.494 504.29226 1012.4789 497.39741 1006.9531 492.01169 C 1003.3792 488.52812 999.02723 486.38534 995.53706 486.3906 z M 940.73042 511.33982 C 939.18014 511.31942 937.8983 511.77445 937.01167 512.65818 C 934.22231 515.43689 935.94964 521.69399 940.87105 526.63474 C 945.79358 531.57699 952.04753 533.33173 954.83784 530.55271 C 957.62754 527.77358 955.89736 521.51516 950.97456 516.57419 C 947.79069 513.37787 943.88569 511.38187 940.73042 511.33982 z M 986.74995 514.9238 C 985.15378 514.9764 983.85522 515.50611 982.98432 516.457 C 980.24209 519.44969 982.31761 525.81185 987.62104 530.66599 C 992.92426 535.51994 999.4463 537.02647 1002.1855 534.03122 C 1004.9249 531.03738 1002.8468 524.67695 997.54487 519.82419 C 994.1148 516.68486 990.00008 514.81651 986.74995 514.9238 z M 1028.8144 522.5156 C 1027.9293 522.5414 1027.16 522.79839 1026.5507 523.27341 C 1023.989 525.27182 1024.7782 530.57383 1028.3144 535.11521 C 1031.8511 539.65698 1036.7957 541.71765 1039.3574 539.71872 C 1041.9191 537.72031 1041.1279 532.42024 1037.5917 527.87888 C 1035.0018 524.55326 1031.5386 522.4363 1028.8144 522.5156 z M 973.58784 544.31443 C 972.00476 544.32513 970.70448 544.81356 969.81636 545.73239 C 967.02283 548.62388 968.91003 554.97759 974.0312 559.92575 C 979.15299 564.87421 985.56946 566.54237 988.36323 563.65036 C 991.15669 560.75889 989.26965 554.40319 984.14839 549.45505 C 980.83526 546.25422 976.80935 544.29478 973.58784 544.31443 z M 1018.6562 548.32028 C 1017.6728 548.34928 1016.8175 548.63545 1016.1406 549.16403 C 1013.2935 551.38476 1014.1711 557.27623 1018.1015 562.32224 C 1022.0323 567.36782 1027.5274 569.65745 1030.3749 567.43747 C 1033.2221 565.21674 1032.3444 559.32722 1028.414 554.28122 C 1025.5356 550.58584 1021.6847 548.23283 1018.6562 548.32028 z M 1058.871 559.96286 C 1058.0592 559.98646 1057.3541 560.2221 1056.7949 560.65817 C 1054.4454 562.49262 1055.1697 567.35633 1058.414 571.52341 C 1061.6579 575.69007 1066.1927 577.58302 1068.5429 575.74997 C 1070.8938 573.9166 1070.17 569.05062 1066.9257 564.88278 C 1064.5496 561.83099 1061.3703 559.8898 1058.871 559.96286 z M 1007.0996 579.33981 C 1006.2197 579.36561 1005.4536 579.62117 1004.8476 580.09372 C 1002.2995 582.0814 1003.0864 587.35342 1006.6035 591.87106 C 1010.1217 596.39011 1015.0392 598.44216 1017.5878 596.45309 C 1020.1361 594.46489 1019.3503 589.19134 1015.832 584.6738 C 1013.2556 581.36577 1009.8094 579.26052 1007.0996 579.33981 z M 1051.4824 584.31052 C 1050.5482 584.33842 1049.7368 584.61085 1049.0937 585.11325 C 1046.3904 587.22292 1047.2246 592.81657 1050.957 597.60934 C 1054.6902 602.40265 1059.9088 604.5799 1062.6132 602.47067 C 1065.3167 600.36099 1064.4823 594.7654 1060.7499 589.97263 C 1058.0165 586.46224 1054.3588 584.22789 1051.4824 584.31052 z M 687.49411 655.48629 A 15.11811 15.118108 0 0 0 672.37692 670.60543 A 15.11811 15.118108 0 0 0 687.49411 685.72262 A 15.11811 15.118108 0 0 0 702.61325 670.60543 A 15.11811 15.118108 0 0 0 687.49411 655.48629 z M 1376.4941 724.53121 C 1387.5132 725.14668 1391.5945 728.565 1392.1562 737.16207 C 1393.2793 754.35631 1378.1218 749.94634 1324.2226 757.62887 C 1272.3273 761.26287 1273.4418 761.43396 1161.1562 775.41793 C 1157.8177 775.7099 1147.5415 741.08059 1153.9648 740.67574 C 1272.583 733.19976 1294.2692 730.11312 1319.1992 728.71871 C 1347.5165 726.10226 1365.4744 723.91583 1376.4941 724.53121 z M 676.12301 735.51559 C 674.47226 735.48129 673.32209 736.59557 672.48043 737.86324 L 641.41403 781.40035 C 641.41403 781.40035 636.76829 787.40801 641.34958 790.94137 C 642.15005 791.55867 700.67542 823.65281 701.42965 823.73824 C 702.01993 823.80474 645.20384 791.3954 645.74411 791.23433 C 648.46423 790.4238 650.07809 787.82418 650.07809 787.82418 L 681.06442 744.37691 C 681.68817 743.54158 682.17048 742.70826 682.33981 741.84371 C 682.51954 740.92608 733.01448 771.3825 733.53317 770.73043 C 734.01442 770.12546 680.55394 737.70632 679.6777 737.03707 C 678.28449 735.97274 677.11352 735.53641 676.12301 735.51559 z M 1122.498 746.37496 C 1123.09 752.92213 1124.7621 770.00599 1125.4277 778.46871 C 1053.0106 778.46871 1000.6109 835.89722 968.14643 872.89253 L 942.12495 898.85738 C 921.34943 916.41432 871.76362 962.30654 852.44527 977.99409 C 841.31983 963.71983 824.55527 963.89699 833.35933 959.01753 C 845.67324 950.87843 907.70194 879.19449 918.748 866.49214 L 940.64253 839.5898 C 944.71774 836.80862 1008.2311 785.05355 1027.7109 769.74019 C 1041.1655 761.64294 1092.7357 749.2349 1122.498 746.37496 z M 1131.7871 811.3984 C 1134.8133 829.53368 1139.0608 902.96527 1143.1249 927.34761 C 1162.3244 1042.5357 1168.3598 1084.546 1172.0117 1090.832 C 1078.9244 1079.193 1029.5631 1072.1707 966.45893 1069.3789 L 893.30464 1001.7851 L 969.61714 923.66597 L 995.44331 898.45699 C 1040.4563 847.57685 1087.564 808.87195 1131.7871 811.3984 z M 774.05855 814.23043 C 760.74232 814.22957 749.94712 825.89345 749.94723 840.28121 C 749.94712 854.66896 760.74232 866.33285 774.05855 866.33199 C 787.37385 866.33167 798.16793 854.66811 798.16793 840.28121 C 798.16793 825.8943 787.37385 814.23076 774.05855 814.23043 z M 420.77342 864.32613 C 422.23434 867.69348 484.60868 904.08778 483.15818 904.81636 C 477.67318 907.57136 471.9213 910.98276 462.4863 946.88862 C 459.04405 959.98564 454.70161 973.41028 452.43357 985.25971 C 450.50779 995.3219 469.19584 1021.4327 482.2656 1052.248 C 494.7995 1081.802 516.01187 1117.0463 520.22263 1122.123 C 526.17888 1129.3041 544.39217 1140.5451 570.32224 1154.541 C 590.34295 1165.3474 616.46202 1176.385 626.16012 1168.5624 C 632.37455 1163.5506 635.81852 1158.3084 643.2695 1106.83 C 644.60831 1097.5808 620.97446 1058.1959 602.16403 1022.5234 C 576.00637 972.9189 565.33326 947.13608 559.66403 938.76167 C 558.635 937.2412 524.09813 918.80416 495.49216 902.57027 C 492.56452 900.49396 424.15174 864.47914 420.77342 864.32613 z M 805.0566 998.88667 C 791.74121 998.88699 780.94713 1010.5487 780.94723 1024.9355 C 780.94723 1039.3224 791.74132 1050.986 805.0566 1050.9863 C 818.37198 1050.986 829.16597 1039.3225 829.16597 1024.9355 C 829.16597 1010.5487 818.37198 998.88699 805.0566 998.88667 z M 959.98433 1110.041 L 1173.1367 1137.6855 C 1175.6396 1148.5658 1179.9205 1171.4942 1184.0156 1183.123 L 952.20698 1166.2929 C 953.78951 1157.6472 959.98433 1110.041 959.98433 1110.041 z M 1215.5663 1128.5781 C 1281.8204 1132.7165 1367.1252 1134.5118 1473.3808 1141.6249 C 1476.0309 1164.8503 1475.3807 1191.7585 1474.3437 1205.5156 C 1434.6124 1194.821 1262.1169 1190.2164 1230.8222 1186.3359 L 1215.5663 1128.5781 z M 299.91405 1134.5644 C 297.73636 1134.5024 423.14261 1195.971 422.40232 1196.6523 C 412.3146 1206.2453 431.37261 1253.0577 434.96092 1261.1972 C 455.76277 1273.6031 515.61971 1303.3195 526.30661 1299.3769 C 537.81662 1301.5981 576.24268 1267.0279 574.41403 1255.1796 C 570.07312 1246.1155 473.46307 1207.6902 437.36717 1191.8203 C 434.00011 1191.1208 302.09186 1134.6264 299.91405 1134.5644 z M 943.87495 1197.7617 C 945.67684 1239.224 983.62868 1317.4366 1025.9843 1376.0038 C 981.28548 1357.0843 962.19045 1343.7985 922.37495 1309.6132 C 928.90785 1281.6165 938.00467 1220.038 943.87495 1197.7617 z M 977.08784 1200.3105 C 1072.6921 1215.051 1099.7289 1213.9193 1191.1308 1223.914 L 1217.4706 1365.8886 C 1223.3699 1382.6958 1246.8704 1427.4665 1254.1113 1439.6503 C 1258.6197 1447.2358 1179.2137 1427.4251 1084.6874 1399.9433 C 1042.0427 1343.1517 983.51432 1235.6205 977.08784 1200.3105 z M 1237.9335 1228.9003 C 1293.8524 1232.9825 1358.2897 1231.1774 1471.6523 1243.58 C 1469.9631 1260.9295 1441.947 1375.4531 1438.4374 1408.2206 C 1425.2485 1452.0538 1418.0016 1466.7778 1407.5273 1473.455 C 1398.7096 1479.0758 1373.5451 1475.4743 1328.6132 1463.248 C 1289.7602 1431.9234 1277.8002 1413.3321 1258.9492 1357.4277 L 1237.9335 1228.9003 z M 796.32418 1283.6796 C 783.00794 1283.6789 772.21079 1295.3426 772.2109 1309.7304 C 772.21079 1324.1182 783.00794 1335.7799 796.32418 1335.7792 C 809.63945 1335.7787 820.43355 1324.1172 820.43355 1309.7304 C 820.43364 1295.3434 809.63956 1283.6801 796.32418 1283.6796 z M 620.07809 1283.9492 C 606.76261 1283.9495 595.96861 1295.6108 595.96872 1309.998 C 595.96872 1324.3847 606.76272 1336.0486 620.07809 1336.0488 C 633.39347 1336.0486 644.18747 1324.3847 644.18747 1309.998 C 644.18757 1295.6108 633.39347 1283.9495 620.07809 1283.9492 z " />
  </g>
</svg>
